<svg width="32" height="32" viewBox="0 0 32 32" fill="none" xmlns="http://www.w3.org/2000/svg">
<path d="M0 10C0 4.47715 4.47715 0 10 0H22C27.5228 0 32 4.47715 32 10V22C32 27.5228 27.5228 32 22 32H10C4.47715 32 0 27.5228 0 22V10Z" fill="#155DFC"/>
<path d="M22.2351 14.4922H19.4354C19.3842 14.13 19.2798 13.8082 19.1222 13.527C18.9645 13.2415 18.7621 12.9986 18.5149 12.7983C18.2678 12.598 17.9822 12.4446 17.6584 12.3381C17.3388 12.2315 16.9915 12.1783 16.6165 12.1783C15.9389 12.1783 15.3487 12.3466 14.8459 12.6832C14.343 13.0156 13.9531 13.5014 13.6761 14.1406C13.3991 14.7756 13.2607 15.5469 13.2607 16.4545C13.2607 17.3878 13.3991 18.1719 13.6761 18.8068C13.9574 19.4418 14.3494 19.9212 14.8523 20.245C15.3551 20.5689 15.9368 20.7308 16.5973 20.7308C16.968 20.7308 17.3111 20.6818 17.6264 20.5838C17.946 20.4858 18.2294 20.343 18.4766 20.1555C18.7237 19.9638 18.9283 19.7315 19.0902 19.4588C19.2564 19.1861 19.3714 18.875 19.4354 18.5256L22.2351 18.5384C22.1626 19.1392 21.9815 19.7188 21.6918 20.277C21.4063 20.831 21.0206 21.3274 20.5348 21.7663C20.0533 22.201 19.478 22.5462 18.8089 22.8018C18.1442 23.0533 17.392 23.179 16.5526 23.179C15.3849 23.179 14.3409 22.9148 13.4205 22.3864C12.5043 21.858 11.7798 21.093 11.2472 20.0916C10.7188 19.0902 10.4545 17.8778 10.4545 16.4545C10.4545 15.027 10.723 13.8125 11.2599 12.8111C11.7969 11.8097 12.5256 11.0469 13.446 10.5227C14.3665 9.99432 15.402 9.73011 16.5526 9.73011C17.3111 9.73011 18.0142 9.83665 18.6619 10.0497C19.3139 10.2628 19.8913 10.5739 20.3942 10.983C20.897 11.3878 21.3061 11.8842 21.6214 12.4723C21.9411 13.0604 22.1456 13.7337 22.2351 14.4922Z" fill="white"/>
</svg>
